<?xml version="1.0" encoding="utf-8"?>
<!-- Generator: Adobe Illustrator 18.1.1, SVG Export Plug-In . SVG Version: 6.00 Build 0)  -->
<svg version="1.1" id="Layer_1" xmlns="http://www.w3.org/2000/svg" xmlns:xlink="http://www.w3.org/1999/xlink" x="0px" y="0px"
	 viewBox="-483 589 1080 360" enable-background="new -483 589 1080 360" xml:space="preserve">
<g>
	<g>
		<path fill="none" stroke="#E5E5E5" stroke-linecap="square" stroke-linejoin="round" d="M488,904V625"/>
	</g>
	<g>
		<path fill="none" stroke="#FFFFFF" stroke-width="0.5" stroke-linecap="square" stroke-linejoin="round" d="M-348,904V625"/>
	</g>
	<path fill="none" stroke="#E5E5E5" stroke-linecap="square" stroke-linejoin="round" d="M70.5,904V625"/>
	<g>
		<path fill="#6699CC" d="M-348,632h769v14h-769V632z"/>
	</g>
	<g>
		<path fill="#6699CC" d="M-348,659.9h538.8v14H-348V659.9z"/>
	</g>
	<g>
		<path fill="#6699CC" d="M-348,687.8h481.3v13.9H-348V687.8z"/>
	</g>
	<g>
		<path fill="#6699CC" d="M-348,715.7H54.8v14H-348V715.7z"/>
	</g>
	<g>
		<path fill="#6699CC" d="M-348,743.6H54.8v14H-348V743.6z"/>
	</g>
	<g>
		<path fill="#6699CC" d="M-348,771.5H54.8v14H-348V771.5z"/>
	</g>
	<g>
		<path fill="#6699CC" d="M-348,799.4h329.6v14H-348V799.4z"/>
	</g>
	<g>
		<path fill="#6699CC" d="M-348,827.3h329.6v13.9H-348V827.3z"/>
	</g>
	<g>
		<path fill="#6699CC" d="M-348,855.2h287.7v14H-348V855.2z"/>
	</g>
	<g>
		<path fill="#6699CC" d="M-348,883.1h287.7v14H-348V883.1z"/>
	</g>
	<g>
		<text transform="matrix(1 0 0 1 -426.4771 643.45)" font-family="'Helvetica'" font-size="16">Research</text>
		<text transform="matrix(1 0 0 1 -407.7974 671.3499)" font-family="'Helvetica'" font-size="16">Project</text>
		<text transform="matrix(1 0 0 1 -420.2739 699.25)" font-family="'Helvetica'" font-size="16">Learning</text>
		<text transform="matrix(1 0 0 1 -421.1563 727.1501)" font-family="'Helvetica'" font-size="16">Students</text>
		<text transform="matrix(1 0 0 1 -438.047 755.0499)" font-family="'Helvetica'" font-size="16">Experience</text>
		<text transform="matrix(1 0 0 1 -429.1567 782.95)" font-family="'Helvetica'" font-size="16">Interested</text>
		<text transform="matrix(1 0 0 1 -407.805 810.8498)" font-family="'Helvetica'" font-size="16">Design</text>
		<text transform="matrix(1 0 0 1 -426.4771 838.7502)" font-family="'Helvetica'" font-size="16">Wearable</text>
		<text transform="matrix(1 0 0 1 -413.1411 866.6503)" font-family="'Helvetica'" font-size="16">Product</text>
		<text transform="matrix(1 0 0 1 -406.9063 894.5496)" font-family="'Helvetica'" font-size="16">Reality</text>
	</g>
	<g>
		<text transform="matrix(1 0 0 1 -357.8639 924.0002)" font-family="'MyriadPro-Regular'" font-size="16">0.0</text>
		<text transform="matrix(1 0 0 1 60.6361 924.0005)" font-family="'MyriadPro-Regular'" font-size="16">0.8</text>
		<text transform="matrix(1 0 0 1 479.1361 924.0005)" font-family="'MyriadPro-Regular'" font-size="16">1.6</text>
	</g>
	<line fill="none" stroke="#000000" x1="-348" y1="904" x2="489" y2="904"/>
	<line fill="none" stroke="#000000" x1="-348" y1="904" x2="-348" y2="625"/>
</g>
</svg>
